<svg id="Layer_1" data-name="Layer 1" xmlns="http://www.w3.org/2000/svg" viewBox="0 0 199 199"><defs><style>.cls-1{fill:#3d5a96;}.cls-2{fill:#fff;}</style></defs><title>fbIcon</title><circle class="cls-1" cx="99.5" cy="99.5" r="99.5"/><path class="cls-2" d="M212.19,203.81v67.64H184.06V203.88H170.79v-24h13.26V178c0-5.54-.15-11.1.22-16.62.53-7.94,3.41-14.91,9.91-19.94,4.77-3.69,10.36-5.18,16.26-5.32,7.35-.17,14.7,0,22.06,0a6.12,6.12,0,0,1,.71.08v23.15H218.7c-4.23,0-6.44,2.17-6.48,6.4-.06,4.65,0,9.3,0,14.15h21.47c-.83,8.07-1.63,15.93-2.46,23.95Z" transform="translate(-102.73 -104.22)"/></svg>