<svg id="Layer_1" data-name="Layer 1" xmlns="http://www.w3.org/2000/svg" viewBox="0 0 199 199"><defs><style>.cls-1{fill:#f52929;}.cls-2{fill:#fff;}</style></defs><title>printrestIcon</title><circle class="cls-1" cx="99.5" cy="99.5" r="99.5"/><path class="cls-2" d="M146.76,185.8a10.41,10.41,0,0,0,.18-1.35A48.07,48.07,0,0,1,152,164.64a51.69,51.69,0,0,1,10.06-13.78,58.15,58.15,0,0,1,18.08-12.1,55.23,55.23,0,0,1,17.2-4.38,75.14,75.14,0,0,1,9.49-.35c2.29.08,4.57.25,6.84.53a66.91,66.91,0,0,1,9.73,1.9,55.93,55.93,0,0,1,17.27,7.95,43.84,43.84,0,0,1,13.47,14.74,42.78,42.78,0,0,1,4.49,12.19c.4,2,.65,4,.86,6a70.87,70.87,0,0,1,.23,10.3A68.13,68.13,0,0,1,257.3,203a63.26,63.26,0,0,1-4.41,11.6,50.55,50.55,0,0,1-9.8,13.67,38.25,38.25,0,0,1-16.85,9.82,36.94,36.94,0,0,1-7.08,1.22,41.68,41.68,0,0,1-7.24-.09,22.39,22.39,0,0,1-9.59-3.25c-1.85-1.15-3.64-2.41-5.45-3.62l-3.15-2.07-.45-.27c-.11.51-.2.95-.28,1.39-.87,4.53-1.81,9.05-2.93,13.52a107.19,107.19,0,0,1-4.32,13.77,56.62,56.62,0,0,1-6.29,11.86,37.16,37.16,0,0,1-7.8,8.18l-.57.41c0-.18-.08-.31-.1-.45-.2-1.9-.41-3.8-.59-5.7a80.87,80.87,0,0,1-.32-8.23c0-2.56.07-5.12.32-7.66.21-2.25.41-4.5.7-6.74.49-3.81,1.19-7.59,2-11.35,1.4-6.54,3.16-13,4.89-19.47,1.35-5,2.67-10.09,3.78-15.2l.39-1.84a.66.66,0,0,0-.08-.53,22.8,22.8,0,0,1-2.81-9.59,31.68,31.68,0,0,1,3.21-17.07,19.36,19.36,0,0,1,5.05-6.49,12.24,12.24,0,0,1,6.6-2.84,13.62,13.62,0,0,1,6.67,1,11.32,11.32,0,0,1,3.4,2.08,9.51,9.51,0,0,1,2.92,5.56,19.58,19.58,0,0,1,0,5.72,57.51,57.51,0,0,1-2.24,9.8c-1.15,3.77-2.34,7.52-3.48,11.28a58.39,58.39,0,0,0-1.71,7.14,26.15,26.15,0,0,0-.41,4.92,14,14,0,0,0,.68,4.16,9.49,9.49,0,0,0,5.4,5.71A17.64,17.64,0,0,0,211,224.8a23.59,23.59,0,0,0,2.91.1,17.87,17.87,0,0,0,7.76-2.05,23.65,23.65,0,0,0,6.75-5.35,38.47,38.47,0,0,0,6.36-10.12,56.48,56.48,0,0,0,3.86-12.66,63.5,63.5,0,0,0,1-7.79,62,62,0,0,0,.05-6.54,47,47,0,0,0-2-11.65,32.39,32.39,0,0,0-3-6.8,25.89,25.89,0,0,0-5.88-6.68,34.37,34.37,0,0,0-15.91-7.5,36.82,36.82,0,0,0-9.66-.52,44.67,44.67,0,0,0-26.6,11.38,40.47,40.47,0,0,0-9.79,12.77,37.17,37.17,0,0,0-3.45,11.34,36.07,36.07,0,0,0-.23,7.7c.11,1.3.27,2.59.49,3.87a15.31,15.31,0,0,0,1.88,5c.73,1.28,1.52,2.53,2.23,3.82a26.53,26.53,0,0,1,1.37,2.78,10.43,10.43,0,0,1,.52,6.1,20.35,20.35,0,0,1-2.33,5.89,1.91,1.91,0,0,1-.24,0,27.1,27.1,0,0,1-9.44-4,22.22,22.22,0,0,1-8-10,33.86,33.86,0,0,1-2.15-7.73,49.46,49.46,0,0,1-.59-6.08,8.55,8.55,0,0,0-.18-1.11Z" transform="translate(-103.78 -107.06)"/></svg>