<svg id="Layer_1" data-name="Layer 1" xmlns="http://www.w3.org/2000/svg" viewBox="0 0 199 199"><defs><style>.cls-1{fill:#f52929;}.cls-2{fill:#fff;}</style></defs><title>youtubeIcon</title><circle class="cls-1" cx="99.5" cy="99.5" r="99.5"/><path id="Youtube" class="cls-2" d="M203.3,256h0c-.33,0-33.29-.23-43.27-1.35-.54-.12-1.19-.22-1.95-.33A17.88,17.88,0,0,1,146,248.57a33.92,33.92,0,0,1-5.05-14,227.4,227.4,0,0,1-1.32-22.74V201.28c0-11.34,1.31-22.85,1.32-23a30.73,30.73,0,0,1,5.05-14,17.36,17.36,0,0,1,12.36-5.82h0l.36,0c17.58-1.33,44.32-1.57,44.59-1.57s27,.24,44.59,1.57l.6.06a16.18,16.18,0,0,1,12.13,5.8,33.78,33.78,0,0,1,5.05,14c0,.11,1.32,11.63,1.32,23v10.59c0,11.1-1.31,22.62-1.32,22.74a33.78,33.78,0,0,1-5.05,14,17.32,17.32,0,0,1-12.37,5.82h0l-.35,0C230.3,256,203.57,256,203.3,256Zm-15.36-72.27v48.87l41.73-23.87Z" transform="translate(-103.79 -106.96)"/></svg>